<svg width="54" height="54" viewBox="0 0 54 54" fill="none" xmlns="http://www.w3.org/2000/svg">
<path d="M27.016 53.576C41.6097 53.576 53.4403 41.7455 53.4403 27.1518C53.4403 12.5581 41.6097 0.727539 27.016 0.727539C12.4223 0.727539 0.591797 12.5581 0.591797 27.1518C0.591797 41.7455 12.4223 53.576 27.016 53.576Z" fill="url(#paint0_linear_341_645)"/>
<path d="M28.4972 31.8872C28.5135 32.5914 28.3573 33.289 28.0423 33.919C27.7273 34.5491 27.2629 35.0925 26.6898 35.502C26.1001 35.9288 25.4391 36.247 24.7378 36.4419C23.9619 36.6623 23.1586 36.7718 22.352 36.7672H13.1523V17.7533H23.3461C23.9754 17.7443 24.5968 17.8935 25.1535 18.1871C25.6706 18.4737 26.1302 18.8537 26.5091 19.3077C26.8914 19.768 27.1855 20.295 27.3766 20.862C27.5914 21.4399 27.6957 22.053 27.6839 22.6695C27.692 23.5886 27.4549 24.4932 26.997 25.2902C26.5334 26.1008 25.8156 26.736 24.9547 27.0976C26.0238 27.3636 26.9679 27.9913 27.6268 28.8742C28.2857 29.7571 28.6188 30.8408 28.5695 31.9414L28.4972 31.8872ZM16.8575 20.9343V25.724H21.7917C22.0856 25.7299 22.3777 25.6769 22.6509 25.5683C22.924 25.4596 23.1727 25.2975 23.3822 25.0914C23.6151 24.8545 23.7952 24.5709 23.9104 24.2594C24.0257 23.9478 24.0736 23.6154 24.051 23.284C24.0763 22.9568 24.0349 22.6279 23.9293 22.3172C23.8237 22.0065 23.656 21.7205 23.4364 21.4766C23.251 21.2688 23.022 21.1045 22.7659 20.9951C22.5098 20.8858 22.2327 20.8342 21.9544 20.844L16.8575 20.9343ZM24.7739 31.2004C24.7787 30.8663 24.7173 30.5346 24.5932 30.2244C24.4916 29.9196 24.332 29.6373 24.1233 29.393C23.9286 29.1726 23.696 28.989 23.4364 28.8508C23.1591 28.7212 22.857 28.6533 22.5508 28.652H16.8575V33.6585H22.2797C22.6081 33.6648 22.9342 33.6033 23.2376 33.4777C23.5213 33.3521 23.7788 33.1743 23.9968 32.9536C24.4496 32.4605 24.7011 31.8156 24.7017 31.1462L24.7739 31.2004Z" fill="white"/>
<path d="M36.468 36.8034C35.452 36.8219 34.4431 36.6311 33.5039 36.2431C32.6792 35.8923 31.9338 35.3785 31.3126 34.7325C30.6915 34.0865 30.2072 33.3216 29.8891 32.4837C29.5482 31.6334 29.3763 30.7248 29.383 29.8088C29.3772 28.8768 29.5426 27.9517 29.871 27.0796C30.182 26.2312 30.6631 25.4554 31.2847 24.7996C31.9063 24.1438 32.6553 23.6219 33.4858 23.266C34.4364 22.8718 35.4571 22.675 36.4861 22.6876C37.5092 22.6749 38.5241 22.8718 39.4683 23.266C40.8015 23.8718 41.913 24.8778 42.6482 26.1443C43.3835 27.4107 43.706 28.8747 43.5711 30.3329C43.5849 30.5074 43.5849 30.6826 43.5711 30.8571H33.034C33.0761 31.3515 33.2045 31.8348 33.4135 32.2849C33.6175 32.6869 33.8931 33.0482 34.2268 33.3513C34.5531 33.6452 34.9338 33.8724 35.3474 34.02C35.7631 34.1777 36.2042 34.2573 36.6488 34.255C37.3323 34.2585 38.005 34.0841 38.6007 33.7489C39.1684 33.4681 39.6171 32.9938 39.8659 32.4114L42.8482 33.2428C42.3239 34.3211 41.486 35.2157 40.4443 35.8093C39.2398 36.5107 37.8609 36.8555 36.468 36.8034ZM39.9925 28.5978C39.9506 27.6644 39.549 26.7835 38.8719 26.1397C38.2094 25.5269 37.3341 25.1962 36.4319 25.218C35.9917 25.2079 35.5539 25.2859 35.1442 25.4473C34.7345 25.6087 34.3612 25.8502 34.0461 26.1578C33.7256 26.4572 33.4622 26.8124 33.2689 27.2061C33.0683 27.6444 32.9518 28.1165 32.9255 28.5978H39.9925Z" fill="white"/>
<path d="M31.9336 18.6387H40.9706V20.916H31.9336V18.6387Z" fill="white"/>
<defs>
<linearGradient id="paint0_linear_341_645" x1="45.7046" y1="8.46323" x2="8.32749" y2="45.8403" gradientUnits="userSpaceOnUse">
<stop stop-color="#006EF5"/>
<stop offset="0.78" stop-color="#2131AE"/>
<stop offset="1" stop-color="#2B1E99"/>
</linearGradient>
</defs>
</svg>
