<svg width="54" height="54" viewBox="0 0 54 54" fill="none" xmlns="http://www.w3.org/2000/svg">
<path d="M26.8031 53.2274C41.3969 53.2274 53.2274 41.3969 53.2274 26.8031C53.2274 12.2094 41.3969 0.378906 26.8031 0.378906C12.2094 0.378906 0.378906 12.2094 0.378906 26.8031C0.378906 41.3969 12.2094 53.2274 26.8031 53.2274Z" fill="url(#paint0_linear_341_657)"/>
<path d="M15.7238 21.887H20.7665V38.3343H15.7238V21.887ZM18.2722 13.7717C18.8623 13.7646 19.441 13.9338 19.9343 14.2575C20.4276 14.5813 20.8131 15.0449 21.0413 15.5891C21.2696 16.1332 21.3302 16.7331 21.2155 17.3119C21.1008 17.8907 20.8159 18.4221 20.3974 18.8381C19.9788 19.254 19.4457 19.5356 18.8662 19.6467C18.2866 19.7579 17.6872 19.6935 17.1444 19.4619C16.6017 19.2303 16.1405 18.842 15.8198 18.3467C15.4991 17.8514 15.3335 17.2716 15.3442 16.6816C15.3537 15.9097 15.6658 15.1723 16.2134 14.6281C16.7609 14.0839 17.5002 13.7764 18.2722 13.7717Z" fill="white"/>
<path d="M24.0391 21.8872H28.9552V24.1284C29.4527 23.2954 30.1645 22.6112 31.0165 22.147C31.8685 21.6829 32.8294 21.4559 33.799 21.4896C38.9682 21.4896 39.9261 24.8875 39.9261 29.3157V38.3527H34.8835V30.3459C34.8835 28.5385 34.8835 25.99 32.2266 25.99C29.5697 25.99 29.154 28.0686 29.154 30.2194V38.3527H24.0391V21.8872Z" fill="white"/>
<defs>
<linearGradient id="paint0_linear_341_657" x1="45.4917" y1="8.1146" x2="8.1146" y2="45.4917" gradientUnits="userSpaceOnUse">
<stop stop-color="#007AB5"/>
<stop offset="1" stop-color="#0046E5"/>
</linearGradient>
</defs>
</svg>
